<svg fill="none" height="16" viewBox="0 0 16 16" width="16" xmlns="http://www.w3.org/2000/svg"><g fill="currentColor"><path d="m9.35355 3.14645c-.19526-.19527-.51184-.19527-.7071 0-.19527.19526-.19527.51184 0 .7071l3.64645 3.64645h-9.7929c-.27614 0-.5.22386-.5.5s.22386.5.5.5h9.7929l-3.64645 3.6464c-.19527.1953-.19527.5119 0 .7072.19526.1952.51184.1952.7071 0l4.50005-4.50005c.0915-.09153.1401-.20971.1458-.32956.0004-.00799.0006-.01599.0006-.02399"/><path d="m14 7.99538c-.0012-.12641-.05-.25248-.1464-.34893l-4.50005-4.5"/></g></svg>