<svg fill="none" height="28" viewBox="0 0 28 28" width="28" xmlns="http://www.w3.org/2000/svg"><g fill="currentColor"><path d="m16.3687 5.50628c-.3417-.34171-.8957-.34171-1.2374 0s-.3417.89573 0 1.23744l6.3813 6.38128h-17.1376c-.48325 0-.875.3918-.875.875s.39175.875.875.875h17.1376l-6.3813 6.3813c-.3417.3417-.3417.8957 0 1.2374s.8957.3417 1.2374 0l7.875-7.875c.1602-.1602.2453-.367.2553-.5767.0007-.014.001-.028.001-.042"/><path d="m24.5 13.9919c-.0021-.2212-.0875-.4418-.2563-.6106l-7.875-7.87502"/></g></svg>