<svg fill="none" height="28" viewBox="0 0 28 28" width="28" xmlns="http://www.w3.org/2000/svg"><g fill="currentColor"><path d="m11.6313 22.4937c.3417.3417.8957.3417 1.2374 0s.3417-.8957 0-1.2374l-6.38126-6.3813h17.13756c.4832 0 .875-.3918.875-.875s-.3918-.875-.875-.875h-17.13756l6.38126-6.38128c.3417-.34171.3417-.89573 0-1.23744s-.8957-.34171-1.2374 0l-7.87502 7.87502c-.16017.1602-.24527.367-.25528.5767-.00067.014-.001.028-.001.042"/><path d="m3.50004 14.0081c.00203.2212.08744.4418.25624.6106l7.87502 7.875"/></g></svg>