<svg fill="none" height="20" viewBox="0 0 20 20" width="20" xmlns="http://www.w3.org/2000/svg"><path d="m4.1665 12.5001h-.83333c-.44203 0-.86595-.1756-1.17851-.4882-.31256-.3125-.48816-.7365-.48816-1.1785v-7.49999c0-.44202.1756-.86595.48816-1.17851s.73648-.48815 1.17851-.48815h7.50003c.442 0 .8659.17559 1.1785.48815.3125.31256.4881.73649.4881 1.17851v.83334zm5-5.00002h7.5c.9205 0 1.6667.74619 1.6667 1.66667v7.49995c0 .9205-.7462 1.6667-1.6667 1.6667h-7.5c-.92047 0-1.66666-.7462-1.66666-1.6667v-7.49995c0-.92048.74619-1.66667 1.66666-1.66667z" stroke="#374151" stroke-linecap="round" stroke-linejoin="round" stroke-width="1.67"/></svg>