<svg fill="none" height="20" viewBox="0 0 20 20" width="20" xmlns="http://www.w3.org/2000/svg"><path clip-rule="evenodd" d="m3.33317 2.66669c-.17681 0-.34638.07023-.4714.19526-.12503.12502-.19527.29459-.19527.4714v7.50005c0 .1768.07024.3463.19527.4714.12502.125.29459.1952.4714.1952h.83333c.55229 0 1 .4477 1 1s-.44771 1-1 1h-.83333c-.70724 0-1.38552-.2809-1.88562-.781-.500095-.5001-.781046-1.1784-.781046-1.8856v-7.50005c0-.70724.280951-1.38552.781046-1.88561.5001-.500102 1.17838-.781053 1.88562-.781053h7.50003c.7072 0 1.3855.280951 1.8856.781053.5001.50009.781 1.17837.781 1.88561v.83334c0 .55228-.4477 1-1 1-.5522 0-1-.44772-1-1v-.83334c0-.17681-.0702-.34638-.1952-.4714-.125-.12503-.2946-.19526-.4714-.19526zm5.83333 5.83333c-.36819 0-.66666.29848-.66666.66667v7.50001c0 .3682.29847.6667.66666.6667h7.5c.3682 0 .6667-.2985.6667-.6667v-7.50001c0-.36819-.2985-.66667-.6667-.66667zm-2.66666.66667c0-1.47276 1.1939-2.66667 2.66666-2.66667h7.5c1.4728 0 2.6667 1.19391 2.6667 2.66667v7.50001c0 1.4727-1.1939 2.6667-2.6667 2.6667h-7.5c-1.47276 0-2.66666-1.194-2.66666-2.6667z" fill="currentColor" fill-rule="evenodd"/></svg>