<svg fill="none" height="17" viewBox="0 0 17 17" width="17" xmlns="http://www.w3.org/2000/svg"><path clip-rule="evenodd" d="m7.30791 1.05489c.16222.16253.22422.39988.16222.62099-.31966 1.13995-.33013 2.34444-.03035 3.48978.29979 1.14533.89903 2.19023 1.73619 3.02739.83713.83716 1.88203 1.4364 3.02743 1.73619 1.1453.29976 2.3498.28926 3.4897-.03035.2211-.062.4585 0 .621.16221.1626.1622.225.3995.1635.6207-.3725 1.3381-1.089 2.5552-2.0782 3.5302-.9893.975-2.2167 1.6738-3.5601 2.0269-1.34333.353-2.75573.3478-4.09649-.0149s-2.56309-1.0704-3.54524-2.0526c-.98214-.9821-1.68982-2.2044-2.05255-3.5452-.362734-1.34075-.367853-2.75315-.01485-4.09651.353-1.34336 1.0518-2.57078 2.0268-3.56002s2.19217-1.70576 3.53027-2.078201c.22122-.061574.45846.000889.62067.163421z" fill="#111827" fill-rule="evenodd"/></svg>