<svg fill="none" height="24" viewBox="0 0 24 24" width="24" xmlns="http://www.w3.org/2000/svg"><path d="m12.0001 24.0001c6.6274 0 12-5.3726 12-12 0-6.62749-5.3726-12.0001-12-12.0001-6.62749 0-12.0001 5.37261-12.0001 12.0001 0 2.2523.620503 4.3596 1.69989 6.1605.019.0317.03815.0633.05744.0948.00825.0135.01653.0269.02484.0404 1.46477 2.3719 3.7326 4.1952 6.42434 5.0913.60039.1098.81919-.2607.81919-.579 0-.1317-.00222-.3645-.00518-.6761-.00343-.3608-.00787-.8272-.01103-1.3645-3.33787.7249-4.04213-1.6089-4.04213-1.6089-.54588-1.3857-1.33265-1.7547-1.33265-1.7547-1.08954-.7448.08251-.7301.08251-.7301 1.20446.0855 1.838 1.2369 1.838 1.2369 1.07039 1.8336 2.80894 1.3039 3.49258.9975.10902-.7758.41843-1.3047.76172-1.6045-2.66455-.3028-5.46613-1.3327-5.46613-5.931 0-1.3098.46779-2.38092 1.23541-3.21999-.12377-.30351-.53557-1.52344.11713-3.17581 0 0 1.00777-.32266 3.3003 1.23025.95694-.26594 1.98387-.39928 3.00417-.4037 1.0188.00442 2.0457.13776 3.0041.4037 2.2911-1.55291 3.2967-1.23025 3.2967-1.23025.6549 1.65237.2431 2.8723.1193 3.17581.7691.83907 1.2339 1.91019 1.2339 3.21999 0 4.6101-2.806 5.6245-5.4793 5.9214.4309.3706.8147 1.1028.8147 2.2226 0 1.0725-.0066 2.0067-.0109 2.6255-.0022.3064-.0038.5356-.0038.6659 0 .3212.2158.6947.8251.5776 2.1447-.7159 4.02-2.0202 5.4339-3.7215-2.2012 2.6491-5.5206 4.3359-9.234 4.3359z" fill="currentColor"/></svg>