<svg fill="none" height="17" viewBox="0 0 16 17" width="16" xmlns="http://www.w3.org/2000/svg"><path clip-rule="evenodd" d="m10.8279 2.17114c-.92848 0-1.81892.36883-2.47545 1.02536l-1.76875 1.76875c-.19526.19526-.19526.51184 0 .70711.19526.19526.51185.19526.70711 0l1.76875-1.76875c.46899-.46899 1.10504-.73247 1.76834-.73247.6632 0 1.2993.26348 1.7683.73247.469.46898.7325 1.10507.7325 1.76832s-.2635 1.29933-.7325 1.76832l-1.7687 1.76875c-.1953.19526-.1953.51184 0 .70711.1952.19529.5118.19529.7071 0l1.7687-1.76875c.6565-.65653 1.0254-1.54697 1.0254-2.47543 0-.92847-.3689-1.81891-1.0254-2.47543-.6565-.65653-1.547-1.02536-2.4754-1.02536zm-.3561 3.85011c.1954.19512.1956.5117.0005.7071l-4.2375 4.24375c-.19512.1954-.51171.1956-.70711.0005-.19541-.1951-.19564-.5117-.00052-.7071l4.2375-4.24373c.19512-.19541.51173-.19564.70713-.00052zm-5.29969 1.06276c.19526.19526.19526.51184 0 .7071l-1.76875 1.76875c-.46899.46904-.73246 1.10504-.73246 1.76834 0 .6632.26347 1.2993.73246 1.7683s1.10507.7325 1.76832.7325c.32841 0 .6536-.0647.95701-.1904s.57909-.3099.81131-.5421l1.76875-1.7687c.19527-.1953.51185-.1953.70711 0 .19526.1952.19526.5118 0 .7071l-1.76875 1.7687c-.32508.3251-.711.583-1.13574.7589-.42473.1759-.87996.2665-1.33969.2665-.92846 0-1.8189-.3689-2.47543-1.0254-.65652-.6565-1.02535-1.5469-1.02535-2.4754s.36883-1.81892 1.02535-2.47544l1.76875-1.76875c.19527-.19526.51185-.19526.70711 0z" fill="#fff" fill-rule="evenodd"/></svg>