<svg fill="none" height="24" viewBox="0 0 24 24" width="24" xmlns="http://www.w3.org/2000/svg"><g fill="#fff"><path d="m12 16.8c2.651 0 4.8-2.149 4.8-4.8 0-2.65097-2.149-4.8-4.8-4.8-2.65097 0-4.8 2.14903-4.8 4.8 0 2.651 2.14903 4.8 4.8 4.8z"/><g clip-rule="evenodd" fill-rule="evenodd"><path d="m12 3c.3314 0 .6.26863.6.6v1.5c0 .33137-.2686.6-.6.6s-.6-.26863-.6-.6v-1.5c0-.33137.2686-.6.6-.6z"/><path d="m5.63574 5.63574c.23431-.23432.61421-.23432.84852 0l1.0575 1.0575c.23432.23431.23432.61421 0 .84852-.23431.23432-.61421.23432-.84852 0l-1.0575-1.0575c-.23432-.23431-.23432-.61421 0-.84852z"/><path d="m3 12c0-.3314.26863-.6.6-.6h1.5c.33137 0 .6.2686.6.6s-.26863.6-.6.6h-1.5c-.33137 0-.6-.2686-.6-.6z"/><path d="m7.54176 16.4582c.23432.2344.23432.6143 0 .8486l-1.0575 1.0575c-.23431.2343-.61421.2343-.84852 0-.23432-.2344-.23432-.6143 0-.8486l1.0575-1.0575c.23431-.2343.61421-.2343.84852 0z"/><path d="m12 18.3c.3314 0 .6.2686.6.6v1.5c0 .3314-.2686.6-.6.6s-.6-.2686-.6-.6v-1.5c0-.3314.2686-.6.6-.6z"/><path d="m16.4582 16.4582c.2344-.2343.6143-.2343.8486 0l1.0575 1.0575c.2343.2343.2343.6142 0 .8486-.2344.2343-.6143.2343-.8486 0l-1.0575-1.0575c-.2343-.2343-.2343-.6142 0-.8486z"/><path d="m18.3 12c0-.3314.2686-.6.6-.6h1.5c.3314 0 .6.2686.6.6s-.2686.6-.6.6h-1.5c-.3314 0-.6-.2686-.6-.6z"/><path d="m18.3643 5.63574c.2343.23431.2343.61421 0 .84852l-1.0575 1.0575c-.2343.23432-.6142.23432-.8486 0-.2343-.23431-.2343-.61421 0-.84852l1.0575-1.0575c.2343-.23432.6142-.23432.8486 0z"/></g></g></svg>