<svg fill="none" height="20" viewBox="0 0 20 20" width="20" xmlns="http://www.w3.org/2000/svg"><path d="m18.5195 0h-17.04294c-.816404 0-1.47656.644531-1.47656 1.44141v17.11329c0 .7969.660156 1.4453 1.47656 1.4453h17.04294c.8164 0 1.4805-.6484 1.4805-1.4414v-17.11719c0-.796879-.6641-1.44141-1.4805-1.44141zm-12.58591 17.043h-2.96875v-9.54691h2.96875zm-1.48437-10.84769c-.95313 0-1.72266-.76953-1.72266-1.71875s.76953-1.71875 1.72266-1.71875c.94922 0 1.71875.76953 1.71875 1.71875 0 .94531-.76953 1.71875-1.71875 1.71875zm12.59378 10.84769h-2.9649v-4.6407c0-1.1054-.0195-2.53121-1.5429-2.53121-1.543 0-1.7774 1.20701-1.7774 2.45311v4.7188h-2.96092v-9.54691h2.84372v1.30469h.0391c.3945-.75 1.3633-1.54297 2.8047-1.54297 3.0039 0 3.5586 1.97657 3.5586 4.54689z" fill="#374151"/></svg>