<svg fill="none" height="32" viewBox="0 0 197 32" width="197" xmlns="http://www.w3.org/2000/svg"><rect fill="currentColor" height="32" rx="2.66667" width="32"/><path d="m12.3095 17.5551v-10.15471h-4.30877v10.41091c0 4.0447 2.27277 6.5886 6.88007 6.7881.0049-.0009.0098-.0018.0149-.0028 2.3255-.0044 4.3471-.8898 5.2081-2.2628h.1633l.1866 2.0296h3.5459v-9.4712h-9.2613v3.4059h4.5257c-.28 1.5863-1.6563 2.636-3.5226 2.636-1.1881 0-2.1568-.4271-2.8251-1.2693l.0009.0023c-.0039-.0053-.0078-.0105-.0117-.0158-.3915-.5308-.596-1.2384-.596-2.0962z" fill="#fff"/><path d="m19.6824 7.40039h4.3172v4.31731h-4.3172z" fill="currentColor"/><g fill="currentColor"><path d="m47 18.22c0 3.54 2.14 5.78 6.28 5.78 1.94 0 3.46-.52 4.6-1.54s1.72-2.44 1.72-4.24v-9h-3.22v8.8c0 2-1.16 3.1-3.08 3.1-1.94 0-3.08-1.16-3.08-3.1v-8.8h-3.22z"/><path d="m61.1492 25.06c0 1.6 1.58 2.56 4.76 2.56 3.82 0 5.72-1.12 5.72-3.38 0-1.86-1.28-3.02-3.58-3.02h-2.4c-.86 0-1.3-.24-1.3-.72 0-.34.18-.58.56-.7.42.1.86.14 1.3.14 1.3 0 2.34-.32 3.12-.94.78-.64 1.18-1.48 1.18-2.52 0-1.08-.4-1.92-1.18-2.54.28-.48.9-.72 1.88-.72v-2.32c-1.76 0-3.18.9-3.6 2.24-.44-.18-1-.26-1.7-.26-1.3 0-2.34.32-3.16.96-.8.64-1.2 1.48-1.2 2.54 0 1.26.54 2.18 1.62 2.78v.16c-.98.32-1.58 1.02-1.58 1.96 0 .72.46 1.34 1.2 1.6v.16c-.98.24-1.64 1.04-1.64 2.02zm4.9-7.2c-.9 0-1.52-.58-1.52-1.46s.58-1.44 1.52-1.44c.9 0 1.52.56 1.52 1.44s-.58 1.46-1.52 1.46zm-2.08 6.6c0-.58.4-.88 1.2-.88h2.4c.7 0 1.04.26 1.04.78 0 .74-.84 1.12-2.54 1.12-1.4 0-2.1-.34-2.1-1.02z"/><path d="m76.1006 11.96v-2.96h-3.04v2.96zm0 11.84v-10.72h-3.04v10.72z"/><path d="m81.9686 19.28c.02 1.42.54 2.58 1.54 3.44 1.02.86 2.44 1.28 4.3 1.28 3.46 0 5.64-1.62 5.64-4.42 0-1.26-.46-2.24-1.24-2.86-.78-.64-1.58-.96-2.6-1.18l-2.58-.52c-.7-.16-.9-.22-1.54-.54-.62-.32-.92-.86-.92-1.58 0-1.3 1.06-2.12 2.9-2.12 1.92 0 3.14.84 3.24 2.5h2.24c-.06-2.58-2.06-4.26-5.36-4.26-1.6 0-2.88.38-3.86 1.14-.96.76-1.44 1.78-1.44 3.04.08 1.78.92 2.74 2.1 3.26.88.38 1.26.44 2 .6l2.58.56c.54.14.74.2 1.3.52.58.3.88.86.88 1.64 0 1.5-1.24 2.46-3.34 2.46-2.32 0-3.52-.98-3.6-2.96z"/><path d="m94.5856 15h1.76v5.86c0 2.06.98 3.1 2.94 3.1.5 0 1.0004-.06 1.4604-.16v-1.68c-.2.06-.5.1-.9204.1-1.14 0-1.4-.6-1.4-1.58v-5.64h2.3204v-1.72h-2.3204v-3.82l-2.08.8v3.02h-1.76z"/><path d="m106.861 24c1.26 0 2.34-.32 3.2-.94s1.4-1.46 1.58-2.48h-2.06c-.26 1.06-1.28 1.76-2.7 1.76-1.84 0-2.98-1.2-2.96-3.34h7.56c.06-.38.1-.76.1-1.16 0-2.88-1.78-4.76-4.74-4.76-1.5 0-2.72.5-3.64 1.5-.9 1-1.36 2.34-1.36 4 0 1.64.46 2.96 1.38 3.94s2.14 1.48 3.64 1.48zm-2.92-6.48c.06-1.68 1.18-2.78 2.86-2.78 1.7 0 2.7 1.02 2.7 2.78z"/><path d="m115.906 23.8v-14.72h-2.04v14.72z"/><path d="m121 23.8v-5.68c0-1.92.98-3.24 2.56-3.24 1.4 0 2.1.9 2.1 2.7v6.22h2.08v-5.66c0-2 .84-3.26 2.52-3.26 1.42 0 2.14.9 2.14 2.7v6.22h2.06v-6.42c0-2.66-1.26-4.3-3.48-4.3-1.52 0-2.8.8-3.42 2.26h-.16c-.48-1.36-1.6-2.26-3.06-2.26-1.48 0-2.54.72-3.18 2.16h-.16l-.28-1.96h-1.78v10.52z"/><path d="m136.553 18.58c0 1.6.46 2.9 1.4 3.92.94 1 2.18 1.5 3.7 1.5s2.74-.5 3.68-1.5c.94-1.02 1.42-2.32 1.42-3.94s-.48-2.94-1.42-3.96-2.16-1.52-3.68-1.52-2.76.52-3.7 1.54-1.4 2.34-1.4 3.96zm2.1-.02c0-2.26 1.16-3.68 3-3.68 1.86 0 2.98 1.42 2.98 3.66 0 2.26-1.14 3.66-2.98 3.66-1.86 0-3-1.42-3-3.64z"/><path d="m158.41 23.8-4.24-6.4 4.04-4.12h-2.62l-4.54 4.7v-8.9h-2.08v14.72h2.08v-3.22l1.7-1.74 3.28 4.96z"/><path d="m159.062 20.92c0 1.84 1.38 3.08 3.46 3.08 1.62 0 3-.76 3.42-1.9h.14c.02 1.22.64 1.84 1.86 1.84.34 0 .68-.06 1.04-.16v-1.52c-.08.02-.2.04-.36.04-.42 0-.62-.26-.62-.78v-4.62c0-2.38-1.44-3.82-4.16-3.82-1.22 0-2.24.3-3.04.92-.78.6-1.22 1.4-1.3 2.42h2c.06-1.04.92-1.7 2.26-1.7 1.46 0 2.2.68 2.2 2.06v.74h-2.7c-2.58 0-4.2 1.22-4.2 3.4zm2.1-.24c0-1.16.78-1.74 2.32-1.74h2.48v.5c0 1.7-1.14 2.9-2.88 2.9-1.18 0-1.92-.6-1.92-1.66z"/><path d="m173.129 11.7v-2.46h-2.04v2.46zm0 12.1v-10.52h-2.04v10.52z"/><path d="m183.143 11.7h2.08v-2.46h-2.08zm-4.521 1.58v-3.82l-2.08.8v3.02h-1.759v1.72h1.759v5.86c0 2.06 1 3.1 2.98 3.1.48 0 .96-.06 1.42-.16v-1.68c-.26.06-.579.1-.96.1-.899 0-1.36-.54-1.36-1.62v-5.6h4.521l.019 8.8h2.061v-10.52z"/><path d="m187.448 20.58c0 2.06 1.66 3.42 4.4 3.42 2.58 0 4.28-1.24 4.28-3.22 0-1.64-.94-2.62-2.8-2.96l-2-.36c-1.06-.14-1.6-.6-1.6-1.36 0-.9.72-1.46 1.98-1.46 1.38 0 2.1.56 2.14 1.68h2c-.06-1.94-1.58-3.24-4.12-3.24-2.48 0-4.08 1.2-4.08 3.22 0 1.54.96 2.5 2.88 2.84l2.14.4c.74.14 1.32.44 1.32 1.32 0 .98-.78 1.58-2.14 1.58-1.5 0-2.38-.72-2.38-1.86z"/></g></svg>