<svg fill="none" height="20" viewBox="0 0 20 20" width="20" xmlns="http://www.w3.org/2000/svg"><path d="m6.2918 18.1251c7.5453 0 11.6734-6.2527 11.6734-11.67343 0-.17578-.0039-.35547-.0117-.53125.8031-.58075 1.4961-1.30009 2.0465-2.12422-.7479.33276-1.542.55007-2.3551.64454.8562-.51319 1.4972-1.31939 1.8043-2.26915-.8054.47733-1.6862.81404-2.6047.99571-.6188-.65754-1.437-1.09291-2.3281-1.2388s-1.8054.00583-2.6016.4317-1.43 1.10218-1.8033 1.92435c-.37325.82217-.46531 1.74442-.26189 2.62415-1.63087-.08184-3.22633-.50549-4.68296-1.2435-1.45663-.738-2.74191-1.77388-3.77251-3.04048-.523807.9031-.684093 1.97177-.448281 2.98881.235811 1.01704.850031 1.90613 1.717811 2.48658-.65148-.02068-1.28869-.19609-1.858982-.51172v.05078c-.000584.94774.327062 1.86644.927232 2.59993.60018.7335 1.43585 1.2365 2.36495 1.4235-.60349.1651-1.23688.1892-1.85117.0703.26218.8151.77228 1.528 1.45911 2.0392s1.51612.7952 2.37214.8124c-1.45326 1.1415-3.24847 1.7607-5.096481 1.7578-.32773-.0005-.655136-.0206-.980469-.0602 1.87738 1.2045 4.06128 1.8442 6.2918 1.843z" fill="#374151"/></svg>